<svg width="29" height="28" viewBox="0 0 29 28" fill="none" xmlns="http://www.w3.org/2000/svg">
<path d="M14.6289 0C6.909 0 0.628906 6.28009 0.628906 14C0.628906 21.7199 6.909 28 14.6289 28C22.3488 28 28.6289 21.7199 28.6289 14C28.6289 6.28009 22.3488 0 14.6289 0Z" fill="#FFE7E6"/>
<path d="M18.38 16.5509C18.7119 16.8829 18.7119 17.4193 18.38 17.7513C18.2145 17.9168 17.9972 18 17.7798 18C17.5625 18 17.3452 17.9168 17.1797 17.7513L14.6289 15.2003L12.0782 17.7513C11.9127 17.9168 11.6954 18 11.4781 18C11.2606 18 11.0433 17.9168 10.8778 17.7513C10.546 17.4193 10.546 16.8829 10.8778 16.5509L13.4287 14.0001L10.8778 11.4493C10.546 11.1173 10.546 10.5809 10.8778 10.2489C11.2098 9.91703 11.7462 9.91703 12.0782 10.2489L14.6289 12.7998L17.1797 10.2489C17.5117 9.91703 18.0481 9.91703 18.38 10.2489C18.7119 10.5809 18.7119 11.1173 18.38 11.4493L15.8291 14.0001L18.38 16.5509Z" fill="#FF5146"/>
</svg>
