<svg width="29" height="28" viewBox="0 0 29 28" fill="none" xmlns="http://www.w3.org/2000/svg">
<circle cx="14.6676" cy="14.0762" r="13.8665" fill="#E7E7FF"/>
<path d="M14.8909 17.5855C14.6339 17.9241 14.2337 18.1322 13.801 18.1529C13.3682 18.1737 12.9491 18.0045 12.6592 17.6919L10.0607 14.8933C9.64776 14.4488 9.68445 13.7635 10.1424 13.3627C10.6009 12.9619 11.3065 12.9977 11.7194 13.4425L13.5578 15.4226C13.585 15.4521 13.6246 15.4678 13.6652 15.4659C13.7061 15.464 13.7434 15.4442 13.7678 15.4126L17.5465 10.4385C17.9122 9.9567 18.6112 9.85415 19.1079 10.2093C19.6041 10.5645 19.7095 11.2429 19.3436 11.7245L14.8909 17.5855Z" fill="#263CFF"/>
</svg>
